<svg xmlns="http://www.w3.org/2000/svg" xmlns:xlink="http://www.w3.org/1999/xlink" width="60" height="60" viewBox="0 0 60 60"><defs><style>.a{fill:none;}.b{fill:#fff;}.c{clip-path:url(#a);}</style><clipPath id="a"><path class="a" d="M28.243-22.76a2.918,2.918,0,0,0-.183-.6l-.005-.012-.006-.011a4.765,4.765,0,0,0-.807-1.219,3.954,3.954,0,0,0-1.044-.865,3.418,3.418,0,0,0-.576-.235h0a3.016,3.016,0,0,0-.748-.128h0l-.1,0a2.652,2.652,0,0,0-.786.121,2.64,2.64,0,0,0-.871.471l-.016.013-.016.014c-.134.114-.289.256-.461.422-.155.151-.286.276-.4.381l-.114.108,0,0-.083.086-.877.832.035.036-.07.073-3.07,3.167-1.157,1.193-1.042,1.076q-.48.494-.8.834l-.344.361-.048.051a3.687,3.687,0,0,0-.484.6,3.832,3.832,0,0,0-.281.536,4.86,4.86,0,0,0-.252.656c-.081.248-.164.521-.25.82s-.159.557-.233.824a6.417,6.417,0,0,0-.176.794,2.1,2.1,0,0,0,.367,1.653,1.79,1.79,0,0,0,1.454.668,2.8,2.8,0,0,0,.312-.018l.029,0,.029,0a7.2,7.2,0,0,0,.7-.162c.269-.073.555-.159.874-.265h0q.433-.145.861-.306c.3-.114.522-.211.7-.3a3.219,3.219,0,0,0,.652-.406c.137-.107.262-.213.376-.318.1-.082.212-.2.44-.431h0l.76-.792c.277-.292.6-.62,1.01-1.036l.009-.008.008-.009L22.7-15.293l3.066-3.162.991-1.022,0,0,.011-.01h0q.146-.132.283-.273.091-.094.215-.215h0q.167-.165.331-.333l.021-.021.02-.022a2.607,2.607,0,0,0,.506-.832,2.565,2.565,0,0,0,.164-.9,3.313,3.313,0,0,0-.067-.669Zm-6.536,6.444-1.143,1.192q-.57.574-1.028,1.054h0q-.378.394-.757.787c-.2.206-.32.325-.358.352-.095.09-.2.182-.328.28a1.813,1.813,0,0,1-.385.238c-.134.068-.328.151-.585.25h0q-.4.151-.807.287c-.281.093-.548.174-.8.242s-.44.113-.565.133a1.321,1.321,0,0,1-.155.009.435.435,0,0,1-.359-.126.72.72,0,0,1-.071-.545,5.209,5.209,0,0,1,.135-.6c.072-.261.148-.529.229-.809s.159-.539.235-.774a3.3,3.3,0,0,1,.186-.486,2.419,2.419,0,0,1,.193-.375,2.369,2.369,0,0,1,.307-.375c.058-.06.191-.2.4-.42s.471-.494.785-.818l1.042-1.075,1.157-1.194,3.07-3.167,2.671,2.769-3.071,3.168Zm5.127-5.392a1.156,1.156,0,0,1-.229.368c-.114.117-.216.22-.307.309h0q-.119.117-.235.236c-.076.078-.148.147-.214.206l-2.671-2.754c.114-.108.251-.238.407-.391s.288-.272.393-.361a1.265,1.265,0,0,1,.414-.228,1.284,1.284,0,0,1,.382-.06h.04a1.618,1.618,0,0,1,.4.066,2.054,2.054,0,0,1,.335.134,2.632,2.632,0,0,1,.665.566,3.318,3.318,0,0,1,.564.848,1.5,1.5,0,0,1,.092.31,1.822,1.822,0,0,1,.036.368,1.077,1.077,0,0,1-.071.383ZM9.957-11.622H4.025a1.88,1.88,0,0,1-1.848-1.906v-20.33a1.88,1.88,0,0,1,1.848-1.906H23.736a1.879,1.879,0,0,1,1.848,1.906v5.175a.952.952,0,0,0,.936.966.951.951,0,0,0,.936-.966v-5.175a3.785,3.785,0,0,0-3.72-3.837H4.025A3.785,3.785,0,0,0,.3-33.859v20.33A3.785,3.785,0,0,0,4.025-9.691H9.957a.952.952,0,0,0,.936-.966.951.951,0,0,0-.936-.966ZM21.311-31.394a.952.952,0,0,0-.936-.966H7.032a.951.951,0,0,0-.936.966.951.951,0,0,0,.936.966H20.374A.952.952,0,0,0,21.311-31.394ZM7.032-27.264A.951.951,0,0,0,6.1-26.3a.951.951,0,0,0,.936.966h9.206a.951.951,0,0,0,.936-.966.951.951,0,0,0-.936-.965H7.032Zm5.227,5.447H7.032a.951.951,0,0,0-.936.965.951.951,0,0,0,.936.966H12.26a.951.951,0,0,0,.936-.966.951.951,0,0,0-.936-.965Z" transform="translate(-0.304 37.696)"/></clipPath></defs><g transform="translate(-189 -738)"><g transform="translate(189 738)"><circle class="b" cx="30" cy="30" r="30"/></g><g transform="translate(204.696 791.696)"><g class="c" transform="translate(0.304 -37.696)"><path d="M-4.7-42.7h35.49V-7.2H-4.7Z" transform="translate(0.951 38.951)"/></g></g></g></svg>