<svg xmlns="http://www.w3.org/2000/svg" width="177" height="59" viewBox="0 0 177 59"><defs><style>.a{fill:#fff;}.b{fill:none;}</style></defs><g transform="translate(-30 -1116)"><g transform="translate(-567.002 581.729)"><path class="a" d="M649.2,553.456l-3.33,10.2c-.664,2.036-1.352,4.064-1.983,6.111-.477,1.546.021,2.179,1.653,2.2.971.013,1.943,0,3,0l4.666-14.195c.228-.693.444-1.391.686-2.079.956-2.724.183-2.184,3.178-2.244,1.845-.037,3.69-.007,6.022-.007l-5.815,6.078,2.922-.574c-.37,1.152-.67,2.1-.98,3.048-1.393,4.253-2.809,8.5-4.167,12.764a1.344,1.344,0,0,1-1.547,1.1c-4.486-.047-8.973,0-13.46-.027-2.832-.015-4.634-2.1-3.876-4.871,1.17-4.266,2.615-8.457,3.982-12.667.522-1.608.719-3.759,1.853-4.6,1.074-.8,3.181-.218,4.834-.238C647.522,553.449,648.2,553.456,649.2,553.456Z" transform="translate(0 0)"/><path class="a" d="M812.159,560.946c2.755,0,5.284-.022,7.812.006,2.833.032,4.584,1.824,4.12,4.6a15.589,15.589,0,0,1-2.839,7.409,8,8,0,0,1-6.662,3.282c-4.865-.065-9.731-.018-14.838-.018.727-2.243,1.4-4.342,2.087-6.436,1.6-4.893,3.247-9.774,4.795-14.686a1.568,1.568,0,0,1,1.869-1.293c1.885.084,3.777.024,5.92.024Zm-3.708,11.287c6.478.375,6.126.292,7.93-5.247a2,2,0,0,0,.065-1c-.068-.308-.293-.814-.479-.827-1.673-.122-3.352-.16-5.029-.2-.076,0-.188.207-.23.335C809.954,567.593,809.209,569.9,808.451,572.234Z" transform="translate(-115.819 -0.375)"/><path class="a" d="M720.071,559.52l2.572.7-1.728-5.914c.124-.1.16-.154.2-.154,5.747-.009,11.494-.08,17.239.021a3.156,3.156,0,0,1,2.868,3.507c-.353,3.83-1.3,7.5-4.586,10.043a7.714,7.714,0,0,1-4.9,1.625c-2.146-.013-4.293.033-6.437-.031a1.241,1.241,0,0,0-1.43,1.065q-.773,2.587-1.707,5.124c-.135.368-.572.876-.885.887-2.183.077-4.371.041-6.622.041a5.7,5.7,0,0,1,.125-.847C716.521,570.28,718.273,564.972,720.071,559.52Zm5.473,5.788a30.611,30.611,0,0,0,4.764-.073,3.144,3.144,0,0,0,1.9-1.587,19.687,19.687,0,0,0,1.347-3.981c.266-1.031-.187-1.7-1.342-1.712-1.069-.008-2.14.044-3.206-.013a1.133,1.133,0,0,0-1.351.948C727.026,560.976,726.3,563.031,725.544,565.308Z" transform="translate(-55.629 -0.603)"/><path class="a" d="M941.119,553.419l-2.285,7.187h3.259a22.218,22.218,0,0,1-1.205,3.378c-.195.361-1.072.561-1.6.5a1.826,1.826,0,0,0-2.332,1.675c-.282,1.328-.8,2.606-1.087,3.932-.286,1.308.237,1.9,1.6,1.965.819.039,1.642.007,2.735.007-.39,1.249-.659,2.314-1.077,3.318a1.333,1.333,0,0,1-1.03.513c-2,.049-4,.062-5.995.016-2.9-.065-4.689-2.2-3.907-5.011,1.171-4.215,2.6-8.357,3.934-12.527.429-1.343.84-2.7,1.368-4a1.583,1.583,0,0,1,1.044-.908C936.627,553.374,938.719,553.419,941.119,553.419Z" transform="translate(-206.536 -0.096)"/><path class="a" d="M895.465,584.079c-1.459,4.461-2.817,8.655-4.229,12.831a1.243,1.243,0,0,1-.923.661c-2.132.059-4.266.03-6.638.03.442-1.4.815-2.628,1.216-3.848.956-2.9,1.9-5.814,2.918-8.7.139-.395.652-.919,1.01-.934C890.949,584.034,893.084,584.079,895.465,584.079Z" transform="translate(-175.177 -21.782)"/><path class="a" d="M911.726,553.516c-.633,1.9-1.141,3.5-1.713,5.076a.975.975,0,0,1-.724.511c-2.172.04-4.346.023-6.777.023.6-1.84,1.092-3.481,1.681-5.088a1.179,1.179,0,0,1,.918-.5C907.191,553.495,909.272,553.516,911.726,553.516Z" transform="translate(-188.501 -0.17)"/></g><rect class="b" width="177" height="59" transform="translate(30 1116)"/></g></svg>