<svg xmlns="http://www.w3.org/2000/svg" width="110" height="110" viewBox="0 0 110 110"><defs><style>.a{opacity:0.999;}.b,.d,.e{fill:#fff;}.c,.f,.j{fill:none;}.c,.e{stroke:#333;stroke-width:1.5px;}.c,.d,.e,.f{stroke-linecap:round;}.g,.i{fill:#333;}.g{font-size:18px;font-family:PingFangSC-Medium, PingFang SC;font-weight:500;}.h,.i{stroke:none;}</style></defs><g transform="translate(-152 -1330)"><g class="a" transform="translate(0 704)"><circle class="b" cx="55" cy="55" r="55" transform="translate(152 626)"/></g><g transform="translate(-4888 -2903)"><path class="c" d="M5080.813,4290s-13.366,4.916-15.673,7.624-4.76,24.455-4.76,24.455h40.231s-1.981-21.928-3.751-24.455S5080.813,4290,5080.813,4290Z" transform="translate(-0.212 -3.324)"/><g class="d" transform="translate(5075.182 4281.257)"><path class="h" d="M 5.311908721923828 9.145833969116211 L 0.7500041723251343 7.592846393585205 L 0.7500041723251343 0.7499983310699463 L 10.08972454071045 0.7499983310699463 L 10.08972454071045 7.585730075836182 L 5.311908721923828 9.145833969116211 Z"/><path class="i" d="M 1.500003814697266 1.499998092651367 L 1.500003814697266 7.055904388427734 L 5.316833019256592 8.355249404907227 L 9.339724540710449 7.041651725769043 L 9.339724540710449 1.499998092651367 L 1.500003814697266 1.499998092651367 M 3.814697265625e-06 -1.9073486328125e-06 L 10.83972454071045 -1.9073486328125e-06 L 10.83972454071045 8.12979793548584 L 5.306954383850098 9.936418533325195 L 3.814697265625e-06 8.12979793548584 L 3.814697265625e-06 -1.9073486328125e-06 Z"/></g><line class="c" y2="22.583" transform="translate(5091.892 4304.292)"/><g class="e" transform="matrix(-0.951, -0.309, 0.309, -0.951, 5099.319, 4324.97)"><rect class="h" width="27.099" height="9.033" rx="4.517"/><rect class="j" x="0.75" y="0.75" width="25.599" height="7.533" rx="3.767"/></g><g class="e" transform="translate(5073.375 4299.323)"><rect class="h" width="15.356" height="17.163" rx="3"/><rect class="j" x="0.75" y="0.75" width="13.856" height="15.663" rx="2.25"/></g><line class="c" y2="22.583" transform="translate(5069.309 4304.292)"/><g class="e" transform="matrix(0.951, -0.309, 0.309, 0.951, 5058.189, 4316.378)"><rect class="h" width="27.099" height="9.033" rx="4.517"/><rect class="j" x="0.75" y="0.75" width="25.599" height="7.533" rx="3.767"/></g><g class="f" transform="translate(5096.771 4255.963)"><path class="h" d="M.151,29.093,0,24.767a2.005,2.005,0,0,1,.089-.67V3a3,3,0,0,1,3-3H30.512a3,3,0,0,1,3,3V25a3,3,0,0,1-3,3H6.826L3.353,30.619a1.973,1.973,0,0,1-1.2.406A2,2,0,0,1,.151,29.093Z"/><path class="i" d="M 2.15748929977417 29.5249137878418 L 2.157474040985107 29.5249137878418 C 2.261926651000977 29.52490043640137 2.35786509513855 29.49087905883789 2.450749397277832 29.42089462280273 L 5.92311954498291 26.80459403991699 L 6.323929309844971 26.50260353088379 L 6.825769424438477 26.50260353088379 L 30.51179885864258 26.50260353088379 C 31.3387393951416 26.50260353088379 32.01149749755859 25.82984352111816 32.01149749755859 25.00290489196777 L 32.01149749755859 2.999704122543335 C 32.01149749755859 2.17276406288147 31.3387393951416 1.500004053115845 30.51179885864258 1.500004053115845 L 3.089699268341064 1.500004053115845 C 2.262269258499146 1.500004053115845 1.589099287986755 2.17276406288147 1.589099287986755 2.999704122543335 L 1.589099287986755 24.096923828125 L 1.589099287986755 24.32581329345703 L 1.520829319953918 24.5442943572998 C 1.504299283027649 24.59721374511719 1.496979355812073 24.6545238494873 1.499079346656799 24.7147045135498 L 1.65027928352356 29.03992462158203 C 1.66266930103302 29.39325332641602 1.96795928478241 29.52492332458496 2.15748929977417 29.5249137878418 M 2.157529354095459 31.0249137878418 C 1.145089387893677 31.02494430541992 0.191619336605072 30.24491500854492 0.1511993408203125 29.09250450134277 L -6.610107448068447e-07 24.76710319519043 C -0.00826066080480814 24.53111457824707 0.02376933954656124 24.30600357055664 0.08909934014081955 24.096923828125 L 0.08909934014081955 2.999704122543335 C 0.08909934014081955 1.342804074287415 1.432799339294434 4.060058472532546e-06 3.089699268341064 4.060058472532546e-06 L 30.51179885864258 4.060058472532546e-06 C 32.168701171875 4.060058472532546e-06 33.51149749755859 1.342804074287415 33.51149749755859 2.999704122543335 L 33.51149749755859 25.00290489196777 C 33.51149749755859 26.65980339050293 32.168701171875 28.00260353088379 30.51179885864258 28.00260353088379 L 6.825769424438477 28.00260353088379 L 3.353399276733398 30.61890411376953 C 2.98241925239563 30.89842414855957 2.565159320831299 31.02489471435547 2.157529354095459 31.0249137878418 Z"/></g><path class="c" d="M5111.686,4290.551v15.441s.472,1.331,2.468,0a42.2,42.2,0,0,0,4.621-3.865h12.308a1.719,1.719,0,0,0,2-1.753c.229-2.074,0-9.823,0-9.823" transform="translate(-5.173 -3.376)"/><line class="c" x2="11.743" transform="translate(5110.862 4293.451)"/><line class="c" x2="7.226" transform="translate(5110.862 4288.033)"/><line class="c" x2="1.807" transform="translate(5121.702 4288.033)"/><text class="g" transform="translate(5113.7 4275.673)"><tspan x="-5.4" y="0">$</tspan></text><path class="e" d="M2.313,17.944V10.8l-.1-.113c-4.854-5.732-.259-12.317,0-10.318.2,1.536,3.161,2.905,4.525,3.458a6.473,6.473,0,0,1,2.052-.331H15.7a6.48,6.48,0,0,1,6.481,6.48v7.972a9.936,9.936,0,1,1-19.873,0Z" transform="translate(5067.9 4255.635)"/><path class="b" d="M0,.323,5.528,0,5.79,7.063.007,7Z" transform="translate(5061.767 4311.893) rotate(7)"/><path class="b" d="M.386,3.886,6.026,7.134,6.307.326.669-.114.521,1.975Z" transform="translate(5100.135 4319.116) rotate(173)"/></g></g></svg>