<svg xmlns="http://www.w3.org/2000/svg" xmlns:xlink="http://www.w3.org/1999/xlink" width="30" height="30" viewBox="0 0 30 30"><defs><style>.a{fill:#fff;}.b{clip-path:url(#a);}.c{fill:none;}</style><clipPath id="a"><path class="a" d="M24.652-29.4a10.307,10.307,0,0,1-2.467,2.543q.015.213.015.64a13.974,13.974,0,0,1-.579,3.952,14.281,14.281,0,0,1-1.759,3.784,14.876,14.876,0,0,1-2.81,3.206,12.509,12.509,0,0,1-3.929,2.223,14.379,14.379,0,0,1-4.919.83A13.659,13.659,0,0,1,.652-14.43a10.528,10.528,0,0,0,1.188.061,9.63,9.63,0,0,0,6.107-2.1,4.8,4.8,0,0,1-2.863-.982,4.811,4.811,0,0,1-1.736-2.429,6.232,6.232,0,0,0,.929.076,5.089,5.089,0,0,0,1.294-.168,4.839,4.839,0,0,1-2.825-1.7A4.752,4.752,0,0,1,1.626-24.8v-.061a4.88,4.88,0,0,0,2.223.624,4.913,4.913,0,0,1-1.6-1.751,4.793,4.793,0,0,1-.594-2.345,4.819,4.819,0,0,1,.67-2.482,13.944,13.944,0,0,0,4.485,3.632,13.706,13.706,0,0,0,5.657,1.515,5.464,5.464,0,0,1-.122-1.127,4.74,4.74,0,0,1,1.439-3.48,4.74,4.74,0,0,1,3.48-1.439,4.742,4.742,0,0,1,3.594,1.553,9.645,9.645,0,0,0,3.122-1.188,4.776,4.776,0,0,1-2.162,2.711,9.8,9.8,0,0,0,2.832-.761Z" transform="translate(-0.652 31.714)"/></clipPath></defs><g transform="translate(-818 -862)"><g transform="translate(821 868)"><g class="b"><path class="a" d="M-4.348-36.714h30.2V-11.02h-30.2Z" transform="translate(1.247 33.613)"/></g></g><rect class="c" width="30" height="30" transform="translate(818 862)"/></g></svg>