<svg xmlns="http://www.w3.org/2000/svg" width="110" height="110" viewBox="0 0 110 110"><defs><style>.a,.e,.f{fill:#fff;}.b,.c,.d,.g,.i{fill:none;}.b,.c,.d,.e,.f,.g{stroke:#333;stroke-linecap:round;stroke-width:1.5px;}.b,.f{stroke-linejoin:round;}.c{stroke-dasharray:1 3;}.g{stroke-dasharray:1 4;}.h{stroke:none;}</style></defs><g transform="translate(-152 -626)"><circle class="a" cx="55" cy="55" r="55" transform="translate(152 626)"/><g transform="translate(-4532.461 -3934)"><path class="b" d="M4718,4591h15.446v3.679" transform="translate(-1.178 -1.342)"/><path class="b" d="M4721.694,4638.932v4.824l-7.263,5.6" transform="translate(-0.779 -6.701)"/><line class="c" y2="10.658" transform="translate(4734.141 4635.4)"/><path class="b" d="M4756.107,4644.8v5.142l9.412,3.019" transform="translate(-5.438 -7.356)"/><line class="c" y2="9.77" transform="translate(4748.353 4585.66)"/><path class="b" d="M4773.107,4592l-7.1,2.79v5.161" transform="translate(-6.546 -1.453)"/><path class="b" d="M4757.05,4603.731l-30.758-5.608-18.831,13.087v16.352l43.96,8.308,4.766-3.2" transform="translate(0 -2.138)"/><path class="b" d="M4707.461,4612.343l44.427,9.115,18.658-13.552-4.879-1.027" transform="translate(0 -3.116)"/><path class="b" d="M4773.7,4627.108l4.18-2.941v-16" transform="translate(-7.405 -3.262)"/><path class="b" d="M4774.009,4617.777l-18.379,12.266-16.536-2.918" transform="translate(-3.537 -4.335)"/><line class="d" y2="15.099" transform="translate(4726.148 4613.196)"/><line class="d" y2="15.099" transform="translate(4735.029 4614.973)"/><line class="d" x1="18.652" y1="3.553" transform="translate(4707.496 4617.637)"/><path class="e" d="M0,14.315,16.453.925" transform="translate(4726.148 4598.88)"/><line class="d" y1="14.211" x2="17.764" transform="translate(4735.029 4600.762)"/><g class="f" transform="translate(4710.605 4585.219)"><circle class="h" cx="4.441" cy="4.441" r="4.441"/><circle class="i" cx="4.441" cy="4.441" r="3.691"/></g><g class="f" transform="translate(4743.467 4579)"><circle class="h" cx="4.441" cy="4.441" r="4.441"/><circle class="i" cx="4.441" cy="4.441" r="3.691"/></g><g class="f" transform="translate(4762.119 4585.219)"><circle class="h" cx="4.441" cy="4.441" r="4.441"/><circle class="i" cx="4.441" cy="4.441" r="3.691"/></g><g class="f" transform="translate(4757.678 4641.174)"><circle class="h" cx="4.441" cy="4.441" r="4.441"/><circle class="i" cx="4.441" cy="4.441" r="3.691"/></g><g class="f" transform="translate(4729.256 4642.951)"><circle class="h" cx="4.441" cy="4.441" r="4.441"/><circle class="i" cx="4.441" cy="4.441" r="3.691"/></g><g class="f" transform="translate(4707.941 4638.51)"><circle class="h" cx="4.441" cy="4.441" r="4.441"/><circle class="i" cx="4.441" cy="4.441" r="3.691"/></g><line class="g" y1="5.329" x2="7.994" transform="translate(4755.458 4625.63)"/></g></g></svg>