<svg xmlns="http://www.w3.org/2000/svg" xmlns:xlink="http://www.w3.org/1999/xlink" width="30" height="30" viewBox="0 0 30 30"><defs><style>.a{fill:#fff;}.b{clip-path:url(#a);}.c{fill:none;}</style><clipPath id="a"><path class="a" d="M18.27-33.677a5.166,5.166,0,0,0-4.559,2.3h-.06v-1.937H9.03V-19.1h4.812v-7.038c0-1.853.385-3.645,2.887-3.645,2.466,0,2.5,2.117,2.5,3.765V-19.1h4.812v-7.8C24.044-30.741,23.142-33.677,18.27-33.677ZM1.042-19.12H5.049V-33.689H1.042Zm2-22.34a2.948,2.948,0,0,0-3,2.911,2.956,2.956,0,0,0,3,2.911,2.948,2.948,0,0,0,3-2.911A2.948,2.948,0,0,0,3.039-41.46Z" transform="translate(-0.044 41.46)"/></clipPath></defs><g transform="translate(-912 -862)"><g transform="translate(915 865)"><g class="b" transform="translate(0 0)"><path class="a" d="M-4.956-46.46H24.512v27.832H-4.956Z" transform="translate(2.222 43.726)"/></g></g><rect class="c" width="30" height="30" transform="translate(912 862)"/></g></svg>