<svg xmlns="http://www.w3.org/2000/svg" xmlns:xlink="http://www.w3.org/1999/xlink" width="30" height="30" viewBox="0 0 30 30"><defs><style>.a{fill:#fff;}.b{clip-path:url(#a);}.c{fill:none;}</style><clipPath id="a"><path class="a" d="M12.224-39.332v3.893s-2.869-.285-3.586.815c-.393.6-.159,2.36-.194,3.624h3.8c-.323,1.476-.551,2.479-.788,3.758H8.422v12.09H3.15V-27.2H.908V-31H3.126c.113-2.783.156-5.538,1.538-6.942,1.554-1.575,3.035-1.387,7.56-1.387" transform="translate(-0.908 39.339)"/></clipPath></defs><g transform="translate(-743 -862)"><g transform="translate(752 865)"><g class="b" transform="translate(0 0)"><path class="a" d="M-4.092-44.339H13.5v30.444h-17.6Z" transform="translate(0.964 41.21)"/></g></g><rect class="c" width="30" height="30" transform="translate(743 862)"/></g></svg>